# xmcd
#
# Track frame offsets: 
#        150
#        16887
#        32126
#        50639
#        66129
#        86516
#        99512
#        118826
#        137213
#        156645
#        173388
#        189052
#        206610
#
# Disc length: 2920 seconds
#
# Revision: 0
# Processed by: cddbd v1.5.2PL0 Copyright (c) Steve Scherf et al.
# Submitted via: ExactAudioCopy v1.3
#
DISCID=ac0b660d
DTITLE=Altered Five Blues Band - Charmed and Dangerous
DYEAR=2017
DGENRE=Chicago Blues, Modern Electric Blues
TTITLE0=Charmed and Dangerous
TTITLE1=Mint Condition
TTITLE2=Three Forks
TTITLE3=On My List to Quit
TTITLE4=If Your Heart Went Public
TTITLE5=Gonna Lose My Lady
TTITLE6=Cookin' In My Kitchen
TTITLE7=She's Still Crazy
TTITLE8=Eighth Wonder
TTITLE9=Three Alarm Desire
TTITLE10=Small Talk
TTITLE11=Rotten
TTITLE12=Look What You Made Me Do
EXTD=
EXTT0=
EXTT1=
EXTT2=
EXTT3=
EXTT4=
EXTT5=
EXTT6=
EXTT7=
EXTT8=
EXTT9=
EXTT10=
EXTT11=
EXTT12=
PLAYORDER=
